<svg width="174" height="40" viewBox="0 0 174 40" fill="none" xmlns="http://www.w3.org/2000/svg">
<path d="M16.043 27.3064C13.8667 26.498 11.6281 26.3737 9.57614 26.9333C8.14596 27.3064 6.77796 28.0526 5.53432 28.9853L4.66376 29.7315L4.41504 29.9802L4.97467 30.4777C5.03685 30.4777 5.03686 30.5399 5.09904 30.602C5.22341 30.7264 5.34778 30.7886 5.53432 30.9129L5.9074 31.1617L6.28049 30.8508C6.34268 30.7886 6.46704 30.6642 6.5914 30.602C7.71068 29.6693 8.95431 29.0475 10.2601 28.7366C11.939 28.3013 13.7423 28.3635 15.5456 29.0475C17.0379 29.6071 20.0849 30.2911 23.7536 28.7366L23.878 28.6744L24.0645 28.4879C24.0645 28.4257 24.1267 28.4257 24.1889 28.3635C24.4998 27.9904 24.8107 27.6173 25.0594 27.182L26.303 25.2544L24.3132 26.3737C21.3907 27.9904 18.7169 28.3013 16.043 27.3064Z" fill="#39BE00"/>
<path d="M7.52364 20.5906C9.20255 20.1553 11.0058 20.2175 12.8091 20.9015C14.7989 21.6477 19.8978 22.7048 25.6186 17.5437L26.5513 16.611L26.6135 16.5488L26.8622 16.3001L26.7378 15.9891C26.6756 15.7404 26.5513 15.4295 26.4269 15.1186L26.116 14.248L25.4942 14.8699C25.432 14.9942 25.3076 15.0564 25.1833 15.1808C22.4473 17.979 18.2189 20.8393 13.3687 19.0982C11.1924 18.2899 8.95382 18.1655 6.90182 18.7251C4.91201 19.2848 3.17091 20.3419 1.55418 21.8342V21.7721L0.621456 22.767C0.621456 22.8291 0.559286 22.8292 0.497104 22.8913L0.310547 23.0779L0.372732 23.3266C0.434914 23.6375 0.559274 23.9484 0.621456 24.2593L0.994551 25.2542L1.61637 24.4459C1.67855 24.3215 1.80291 24.2593 1.86509 24.135C3.17091 22.9535 4.97419 21.2746 7.52364 20.5906Z" fill="#39BE00"/>
<path d="M1.49238 19.4713C2.92256 17.9789 4.53928 17.0462 6.28037 16.5487C7.95928 16.1135 9.76255 16.1757 11.5658 16.8597C17.1622 18.9117 22.0124 15.5538 24.1266 13.7506L24.9349 12.9422L25.2458 12.6935L24.9971 12.3204C24.8106 12.1338 24.6862 11.8851 24.4997 11.6364L24.1266 11.1389L23.6913 11.5742C23.6291 11.6364 23.5047 11.7607 23.4426 11.8229C20.8309 14.3102 16.7891 16.8597 12.1876 15.1186C10.0113 14.3102 7.77273 14.1858 5.72074 14.7455C4.41492 15.1186 3.17128 15.7404 1.92764 16.5487L0.621818 17.6058C0.497455 17.7302 0.435273 17.7924 0.310909 17.9167L0.186557 18.0411V18.2277C0.124375 18.6629 0.124367 19.0982 0.0621856 19.4713L0 21.0258L1.0571 19.9066C1.18146 19.7822 1.30583 19.5957 1.49238 19.4713Z" fill="#39BE00"/>
<path d="M17.8466 31.5346L17.7222 31.9077L17.8466 31.5346C17.66 31.4725 17.5357 31.4103 17.3491 31.3481C15.1728 30.5397 12.9342 30.4154 10.8822 30.975C10.4469 31.0994 10.0117 31.2237 9.57639 31.4103L8.08401 32.0943L7.71094 32.2808L8.95457 32.7161C9.32766 32.8405 9.70075 32.9648 10.0738 33.0892L10.2604 33.1514L10.4469 33.0892C10.6335 33.027 10.82 32.9026 11.0066 32.9026C11.1309 32.9026 11.2553 32.8405 11.3797 32.7783C12.872 32.4052 14.4887 32.4052 16.2298 32.9648C16.4164 33.027 16.5408 33.0892 16.7273 33.1514L17.0382 33.2757L17.2247 33.2135C17.66 33.0892 18.1575 32.9648 18.5306 32.7783L20.2717 32.1565L18.4684 31.7212C18.2818 31.659 18.0331 31.5968 17.8466 31.5346Z" fill="#39BE00"/>
<path d="M27.3597 18.6631L26.427 19.5958C26.3027 19.7202 26.1783 19.8445 26.0539 19.9689C23.5045 22.394 19.4005 25.0056 14.799 23.2645C12.6227 22.4562 10.3841 22.3318 8.33213 22.8915C6.40449 23.4511 4.66338 24.446 3.10884 25.9384L2.30048 26.8089L2.05176 27.1198L2.30048 27.4929C2.48703 27.7416 2.6114 27.9282 2.73576 28.1769L3.10884 28.7365L3.54412 28.1769C3.6063 28.1147 3.73066 27.9904 3.79284 27.9282C5.2852 26.3114 6.90193 25.3165 8.76739 24.8191C10.4463 24.3838 12.2496 24.446 14.0528 25.13C15.6074 25.6896 17.2241 25.8762 18.8408 25.6896C21.7012 25.3787 24.5616 23.762 26.6758 21.9587C26.8001 21.8344 26.9245 21.7722 27.0488 21.6478L27.2354 21.4613V21.2747C27.2354 20.9016 27.2976 20.4664 27.2976 20.0933L27.3597 18.6631Z" fill="#39BE00"/>
<path d="M3.73045 12.9423L3.54391 12.5692L3.73045 12.9423C4.10354 12.7557 4.53883 12.6313 4.91192 12.507C6.59083 12.0717 8.3941 12.1339 10.1974 12.8179C11.3788 13.2532 12.5603 13.4397 13.8661 13.4397C16.4777 13.4397 19.0894 12.507 21.5145 10.7037L22.4472 9.95752L22.7581 9.70879L22.1985 9.27351C22.0119 9.08697 21.7632 8.90043 21.5145 8.77607L21.1414 8.52734L20.8305 8.77607C20.7061 8.83825 20.6439 8.96261 20.5195 9.02479C17.2239 11.5121 13.9283 12.1961 10.8192 11.0146C8.58065 10.2063 6.34209 10.0197 4.10355 10.7037C3.917 10.7659 3.73045 10.8281 3.48173 10.8902L3.35738 10.9524L3.17082 11.139C3.17082 11.2012 3.10865 11.2012 3.04647 11.2633C2.79774 11.6364 2.48682 11.9473 2.23809 12.3204L1.05664 14.1237L2.98428 13.1288C3.29519 13.1288 3.54391 13.0044 3.73045 12.9423Z" fill="#39BE00"/>
<path d="M8.82967 8.71393L9.01621 8.77611C9.82457 9.08702 11.0682 9.39793 12.6228 9.39793C14.2395 9.39793 15.794 9.02484 17.3486 8.40302L19.2762 7.47029L17.9704 7.03503C17.5973 6.91067 17.2242 6.7863 16.7889 6.72412H16.6024L16.4159 6.78629C16.2293 6.84847 16.0428 6.97285 15.8562 7.03503C13.9908 7.71903 12.1253 7.84339 10.322 7.34594C10.1355 7.28376 9.94894 7.22156 9.7624 7.15938L9.57586 7.0972L9.3893 7.15938C9.01621 7.28375 8.64313 7.40812 8.27004 7.59466L6.83984 8.21648L8.33222 8.65174C8.45659 8.58956 8.64312 8.65175 8.82967 8.71393Z" fill="#39BE00"/>
<path d="M39.8041 30.5V10.76H52.8241V13.588H43.4161V19.188H52.1801V22.016H43.4161V30.5H39.8041ZM55.5476 30.5V16.36H59.0476V30.5H55.5476ZM55.3516 13.7V10.284H59.2436V13.7H55.3516ZM62.8483 30.5V19.888C62.8483 19.3093 62.8297 18.7213 62.7923 18.124C62.755 17.5267 62.699 16.9387 62.6243 16.36H66.0123L66.2923 19.16H65.9563C66.4043 18.1707 67.067 17.4147 67.9443 16.892C68.8217 16.3507 69.839 16.08 70.9963 16.08C72.6577 16.08 73.9083 16.5467 74.7483 17.48C75.5883 18.4133 76.0083 19.8693 76.0083 21.848V30.5H72.5083V22.016C72.5083 20.8773 72.2843 20.0653 71.8363 19.58C71.407 19.076 70.7537 18.824 69.8763 18.824C68.7937 18.824 67.935 19.16 67.3003 19.832C66.6657 20.504 66.3483 21.4 66.3483 22.52V30.5H62.8483ZM89.1834 30.78C87.1301 30.78 85.3661 30.3693 83.8914 29.548C82.4354 28.708 81.3154 27.532 80.5314 26.02C79.7474 24.4893 79.3554 22.688 79.3554 20.616C79.3554 18.544 79.7474 16.752 80.5314 15.24C81.3154 13.728 82.4354 12.5613 83.8914 11.74C85.3661 10.9 87.1301 10.48 89.1834 10.48C90.5648 10.48 91.8061 10.676 92.9074 11.068C94.0274 11.46 94.9888 12.0387 95.7914 12.804L94.6154 15.66C93.7381 14.9507 92.8888 14.4467 92.0674 14.148C91.2648 13.8307 90.3408 13.672 89.2954 13.672C87.2981 13.672 85.7674 14.2787 84.7034 15.492C83.6581 16.6867 83.1354 18.3947 83.1354 20.616C83.1354 22.8373 83.6581 24.5547 84.7034 25.768C85.7674 26.9813 87.2981 27.588 89.2954 27.588C90.3408 27.588 91.2648 27.4387 92.0674 27.14C92.8888 26.8227 93.7381 26.3 94.6154 25.572L95.7914 28.428C94.9888 29.1747 94.0274 29.7533 92.9074 30.164C91.8061 30.5747 90.5648 30.78 89.1834 30.78ZM98.8874 30.5V9.892H102.387V30.5H98.8874ZM112.572 30.78C111.116 30.78 109.856 30.4813 108.792 29.884C107.728 29.2867 106.898 28.4373 106.3 27.336C105.722 26.2347 105.432 24.928 105.432 23.416C105.432 21.904 105.722 20.6067 106.3 19.524C106.898 18.4227 107.728 17.5733 108.792 16.976C109.856 16.3787 111.116 16.08 112.572 16.08C114.028 16.08 115.288 16.3787 116.352 16.976C117.435 17.5733 118.266 18.4227 118.844 19.524C119.442 20.6067 119.74 21.904 119.74 23.416C119.74 24.928 119.442 26.2347 118.844 27.336C118.266 28.4373 117.435 29.2867 116.352 29.884C115.288 30.4813 114.028 30.78 112.572 30.78ZM112.572 28.092C113.674 28.092 114.551 27.7093 115.204 26.944C115.858 26.16 116.184 24.984 116.184 23.416C116.184 21.848 115.858 20.6813 115.204 19.916C114.551 19.1507 113.674 18.768 112.572 18.768C111.471 18.768 110.594 19.1507 109.94 19.916C109.287 20.6813 108.96 21.848 108.96 23.416C108.96 24.984 109.287 26.16 109.94 26.944C110.594 27.7093 111.471 28.092 112.572 28.092ZM127.854 30.78C126.118 30.78 124.821 30.304 123.962 29.352C123.104 28.4 122.674 26.944 122.674 24.984V16.36H126.174V24.956C126.174 26.0013 126.389 26.776 126.818 27.28C127.248 27.7653 127.901 28.008 128.778 28.008C129.768 28.008 130.57 27.672 131.186 27C131.821 26.328 132.138 25.4413 132.138 24.34V16.36H135.638V30.5H132.222V27.616H132.614C132.204 28.624 131.578 29.408 130.738 29.968C129.917 30.5093 128.956 30.78 127.854 30.78ZM144.926 30.78C143.694 30.78 142.602 30.4907 141.65 29.912C140.717 29.3147 139.989 28.4653 139.466 27.364C138.944 26.2627 138.682 24.9467 138.682 23.416C138.682 21.8853 138.944 20.5787 139.466 19.496C139.989 18.3947 140.717 17.5547 141.65 16.976C142.602 16.3787 143.694 16.08 144.926 16.08C146.102 16.08 147.138 16.3693 148.034 16.948C148.949 17.508 149.556 18.2733 149.854 19.244H149.49V9.892H152.99V30.5H149.546V27.504H149.882C149.584 28.512 148.977 29.3147 148.062 29.912C147.166 30.4907 146.121 30.78 144.926 30.78ZM145.906 28.092C147.008 28.092 147.894 27.7093 148.566 26.944C149.238 26.16 149.574 24.984 149.574 23.416C149.574 21.848 149.238 20.6813 148.566 19.916C147.894 19.1507 147.008 18.768 145.906 18.768C144.805 18.768 143.909 19.1507 143.218 19.916C142.546 20.6813 142.21 21.848 142.21 23.416C142.21 24.984 142.546 26.16 143.218 26.944C143.909 27.7093 144.805 28.092 145.906 28.092Z" fill="white"/>
</svg>
