<svg width="204" height="40" viewBox="0 0 204 40" fill="none" xmlns="http://www.w3.org/2000/svg">
<path d="M16.043 27.3064C13.8667 26.498 11.6281 26.3737 9.57614 26.9333C8.14596 27.3064 6.77796 28.0526 5.53432 28.9853L4.66376 29.7315L4.41504 29.9802L4.97467 30.4777C5.03685 30.4777 5.03686 30.5399 5.09904 30.602C5.22341 30.7264 5.34778 30.7886 5.53432 30.9129L5.9074 31.1617L6.28049 30.8508C6.34268 30.7886 6.46704 30.6642 6.5914 30.602C7.71068 29.6693 8.95431 29.0475 10.2601 28.7366C11.939 28.3013 13.7423 28.3635 15.5456 29.0475C17.0379 29.6071 20.0849 30.2911 23.7536 28.7366L23.878 28.6744L24.0645 28.4879C24.0645 28.4257 24.1267 28.4257 24.1889 28.3635C24.4998 27.9904 24.8107 27.6173 25.0594 27.182L26.303 25.2544L24.3132 26.3737C21.3907 27.9904 18.7169 28.3013 16.043 27.3064Z" fill="#39BE00"/>
<path d="M7.52364 20.5906C9.20255 20.1553 11.0058 20.2175 12.8091 20.9015C14.7989 21.6477 19.8978 22.7048 25.6186 17.5437L26.5513 16.611L26.6135 16.5488L26.8622 16.3001L26.7378 15.9891C26.6756 15.7404 26.5513 15.4295 26.4269 15.1186L26.116 14.248L25.4942 14.8699C25.432 14.9942 25.3076 15.0564 25.1833 15.1808C22.4473 17.979 18.2189 20.8393 13.3687 19.0982C11.1924 18.2899 8.95382 18.1655 6.90182 18.7251C4.91201 19.2848 3.17091 20.3419 1.55418 21.8342V21.7721L0.621456 22.767C0.621456 22.8291 0.559286 22.8292 0.497104 22.8913L0.310547 23.0779L0.372732 23.3266C0.434914 23.6375 0.559274 23.9484 0.621456 24.2593L0.994551 25.2542L1.61637 24.4459C1.67855 24.3215 1.80291 24.2593 1.86509 24.135C3.17091 22.9535 4.97419 21.2746 7.52364 20.5906Z" fill="#39BE00"/>
<path d="M1.49238 19.4713C2.92256 17.9789 4.53928 17.0462 6.28037 16.5487C7.95928 16.1135 9.76255 16.1757 11.5658 16.8597C17.1622 18.9117 22.0124 15.5538 24.1266 13.7506L24.9349 12.9422L25.2458 12.6935L24.9971 12.3204C24.8106 12.1338 24.6862 11.8851 24.4997 11.6364L24.1266 11.1389L23.6913 11.5742C23.6291 11.6364 23.5047 11.7607 23.4426 11.8229C20.8309 14.3102 16.7891 16.8597 12.1876 15.1186C10.0113 14.3102 7.77273 14.1858 5.72074 14.7455C4.41492 15.1186 3.17128 15.7404 1.92764 16.5487L0.621818 17.6058C0.497455 17.7302 0.435273 17.7924 0.310909 17.9167L0.186557 18.0411V18.2277C0.124375 18.6629 0.124367 19.0982 0.0621856 19.4713L0 21.0258L1.0571 19.9066C1.18146 19.7822 1.30583 19.5957 1.49238 19.4713Z" fill="#39BE00"/>
<path d="M17.8466 31.5346L17.7222 31.9077L17.8466 31.5346C17.66 31.4725 17.5357 31.4103 17.3491 31.3481C15.1728 30.5397 12.9342 30.4154 10.8822 30.975C10.4469 31.0994 10.0117 31.2237 9.57639 31.4103L8.08401 32.0943L7.71094 32.2808L8.95457 32.7161C9.32766 32.8405 9.70075 32.9648 10.0738 33.0892L10.2604 33.1514L10.4469 33.0892C10.6335 33.027 10.82 32.9026 11.0066 32.9026C11.1309 32.9026 11.2553 32.8405 11.3797 32.7783C12.872 32.4052 14.4887 32.4052 16.2298 32.9648C16.4164 33.027 16.5408 33.0892 16.7273 33.1514L17.0382 33.2757L17.2247 33.2135C17.66 33.0892 18.1575 32.9648 18.5306 32.7783L20.2717 32.1565L18.4684 31.7212C18.2818 31.659 18.0331 31.5968 17.8466 31.5346Z" fill="#39BE00"/>
<path d="M27.3597 18.6631L26.427 19.5958C26.3027 19.7202 26.1783 19.8445 26.0539 19.9689C23.5045 22.394 19.4005 25.0056 14.799 23.2645C12.6227 22.4562 10.3841 22.3318 8.33213 22.8915C6.40449 23.4511 4.66338 24.446 3.10884 25.9384L2.30048 26.8089L2.05176 27.1198L2.30048 27.4929C2.48703 27.7416 2.6114 27.9282 2.73576 28.1769L3.10884 28.7365L3.54412 28.1769C3.6063 28.1147 3.73066 27.9904 3.79284 27.9282C5.2852 26.3114 6.90193 25.3165 8.76739 24.8191C10.4463 24.3838 12.2496 24.446 14.0528 25.13C15.6074 25.6896 17.2241 25.8762 18.8408 25.6896C21.7012 25.3787 24.5616 23.762 26.6758 21.9587C26.8001 21.8344 26.9245 21.7722 27.0488 21.6478L27.2354 21.4613V21.2747C27.2354 20.9016 27.2976 20.4664 27.2976 20.0933L27.3597 18.6631Z" fill="#39BE00"/>
<path d="M3.73045 12.9423L3.54391 12.5692L3.73045 12.9423C4.10354 12.7557 4.53883 12.6313 4.91192 12.507C6.59083 12.0717 8.3941 12.1339 10.1974 12.8179C11.3788 13.2532 12.5603 13.4397 13.8661 13.4397C16.4777 13.4397 19.0894 12.507 21.5145 10.7037L22.4472 9.95752L22.7581 9.70879L22.1985 9.27351C22.0119 9.08697 21.7632 8.90043 21.5145 8.77607L21.1414 8.52734L20.8305 8.77607C20.7061 8.83825 20.6439 8.96261 20.5195 9.02479C17.2239 11.5121 13.9283 12.1961 10.8192 11.0146C8.58065 10.2063 6.34209 10.0197 4.10355 10.7037C3.917 10.7659 3.73045 10.8281 3.48173 10.8902L3.35738 10.9524L3.17082 11.139C3.17082 11.2012 3.10865 11.2012 3.04647 11.2633C2.79774 11.6364 2.48682 11.9473 2.23809 12.3204L1.05664 14.1237L2.98428 13.1288C3.29519 13.1288 3.54391 13.0044 3.73045 12.9423Z" fill="#39BE00"/>
<path d="M8.82967 8.71393L9.01621 8.77611C9.82457 9.08702 11.0682 9.39793 12.6228 9.39793C14.2395 9.39793 15.794 9.02484 17.3486 8.40302L19.2762 7.47029L17.9704 7.03503C17.5973 6.91067 17.2242 6.7863 16.7889 6.72412H16.6024L16.4159 6.78629C16.2293 6.84847 16.0428 6.97285 15.8562 7.03503C13.9908 7.71903 12.1253 7.84339 10.322 7.34594C10.1355 7.28376 9.94894 7.22156 9.7624 7.15938L9.57586 7.0972L9.3893 7.15938C9.01621 7.28375 8.64313 7.40812 8.27004 7.59466L6.83984 8.21648L8.33222 8.65174C8.45659 8.58956 8.64312 8.65175 8.82967 8.71393Z" fill="#39BE00"/>
<path d="M46.0761 36.772C44.7695 36.772 43.5841 36.632 42.5201 36.352C41.4748 36.072 40.5415 35.6427 39.7201 35.064L40.4761 32.544C41.0175 32.8987 41.5775 33.188 42.1561 33.412C42.7348 33.636 43.3321 33.804 43.9481 33.916C44.5641 34.028 45.1895 34.084 45.8241 34.084C47.1308 34.084 48.1015 33.7573 48.7361 33.104C49.3895 32.4693 49.7161 31.5547 49.7161 30.36V26.972H49.9961C49.6975 27.9427 49.0908 28.7173 48.1761 29.296C47.2801 29.8747 46.2441 30.164 45.0681 30.164C43.7988 30.164 42.6881 29.884 41.7361 29.324C40.8028 28.7453 40.0748 27.924 39.5521 26.86C39.0295 25.796 38.7681 24.5453 38.7681 23.108C38.7681 21.6707 39.0295 20.4293 39.5521 19.384C40.0748 18.32 40.8028 17.508 41.7361 16.948C42.6881 16.3693 43.7988 16.08 45.0681 16.08C46.2628 16.08 47.2988 16.3693 48.1761 16.948C49.0721 17.508 49.6695 18.2733 49.9681 19.244L49.7161 19.076L49.9961 16.36H53.3841C53.3095 16.9387 53.2535 17.5267 53.2161 18.124C53.1788 18.7213 53.1601 19.3093 53.1601 19.888V29.94C53.1601 32.1613 52.5535 33.8507 51.3401 35.008C50.1455 36.184 48.3908 36.772 46.0761 36.772ZM46.0201 27.476C47.1401 27.476 48.0268 27.1027 48.6801 26.356C49.3521 25.5907 49.6881 24.508 49.6881 23.108C49.6881 21.708 49.3521 20.6347 48.6801 19.888C48.0268 19.1413 47.1401 18.768 46.0201 18.768C44.8815 18.768 43.9761 19.1413 43.3041 19.888C42.6321 20.6347 42.2961 21.708 42.2961 23.108C42.2961 24.508 42.6321 25.5907 43.3041 26.356C43.9761 27.1027 44.8815 27.476 46.0201 27.476ZM63.3261 30.78C61.8701 30.78 60.6101 30.4813 59.5461 29.884C58.4821 29.2867 57.6514 28.4373 57.0541 27.336C56.4754 26.2347 56.1861 24.928 56.1861 23.416C56.1861 21.904 56.4754 20.6067 57.0541 19.524C57.6514 18.4227 58.4821 17.5733 59.5461 16.976C60.6101 16.3787 61.8701 16.08 63.3261 16.08C64.7821 16.08 66.0421 16.3787 67.1061 16.976C68.1888 17.5733 69.0194 18.4227 69.5981 19.524C70.1954 20.6067 70.4941 21.904 70.4941 23.416C70.4941 24.928 70.1954 26.2347 69.5981 27.336C69.0194 28.4373 68.1888 29.2867 67.1061 29.884C66.0421 30.4813 64.7821 30.78 63.3261 30.78ZM63.3261 28.092C64.4274 28.092 65.3048 27.7093 65.9581 26.944C66.6114 26.16 66.9381 24.984 66.9381 23.416C66.9381 21.848 66.6114 20.6813 65.9581 19.916C65.3048 19.1507 64.4274 18.768 63.3261 18.768C62.2248 18.768 61.3474 19.1507 60.6941 19.916C60.0408 20.6813 59.7141 21.848 59.7141 23.416C59.7141 24.984 60.0408 26.16 60.6941 26.944C61.3474 27.7093 62.2248 28.092 63.3261 28.092ZM79.8964 30.78C78.4404 30.78 77.1804 30.4813 76.1164 29.884C75.0524 29.2867 74.2217 28.4373 73.6244 27.336C73.0457 26.2347 72.7564 24.928 72.7564 23.416C72.7564 21.904 73.0457 20.6067 73.6244 19.524C74.2217 18.4227 75.0524 17.5733 76.1164 16.976C77.1804 16.3787 78.4404 16.08 79.8964 16.08C81.3524 16.08 82.6124 16.3787 83.6764 16.976C84.7591 17.5733 85.5897 18.4227 86.1684 19.524C86.7657 20.6067 87.0644 21.904 87.0644 23.416C87.0644 24.928 86.7657 26.2347 86.1684 27.336C85.5897 28.4373 84.7591 29.2867 83.6764 29.884C82.6124 30.4813 81.3524 30.78 79.8964 30.78ZM79.8964 28.092C80.9977 28.092 81.8751 27.7093 82.5284 26.944C83.1817 26.16 83.5084 24.984 83.5084 23.416C83.5084 21.848 83.1817 20.6813 82.5284 19.916C81.8751 19.1507 80.9977 18.768 79.8964 18.768C78.7951 18.768 77.9177 19.1507 77.2644 19.916C76.6111 20.6813 76.2844 21.848 76.2844 23.416C76.2844 24.984 76.6111 26.16 77.2644 26.944C77.9177 27.7093 78.7951 28.092 79.8964 28.092ZM89.1712 30.5V26.608H93.0912V30.5H89.1712ZM96.9136 30.5V18.992H94.1976V16.36H97.8936L96.9136 17.256V15.1C96.9136 13.3453 97.3523 12.02 98.2296 11.124C99.1256 10.228 100.423 9.78 102.122 9.78C102.532 9.78 102.962 9.808 103.41 9.864C103.876 9.92 104.278 10.0227 104.614 10.172V12.916C104.371 12.8227 104.082 12.748 103.746 12.692C103.41 12.636 103.083 12.608 102.766 12.608C102.038 12.608 101.459 12.8227 101.03 13.252C100.6 13.6627 100.386 14.3347 100.386 15.268V16.976L99.8816 16.36H109.71V30.5H106.21V18.992H100.414V30.5H96.9136ZM106.014 13.7V10.284H109.906V13.7H106.014ZM113.516 30.5V19.888C113.516 19.3093 113.498 18.7213 113.46 18.124C113.423 17.5267 113.367 16.9387 113.292 16.36H116.68L116.96 19.16H116.624C117.072 18.1707 117.735 17.4147 118.612 16.892C119.49 16.3507 120.507 16.08 121.664 16.08C123.326 16.08 124.576 16.5467 125.416 17.48C126.256 18.4133 126.676 19.8693 126.676 21.848V30.5H123.176V22.016C123.176 20.8773 122.952 20.0653 122.504 19.58C122.075 19.076 121.422 18.824 120.544 18.824C119.462 18.824 118.603 19.16 117.968 19.832C117.334 20.504 117.016 21.4 117.016 22.52V30.5H113.516ZM135.847 30.78C134.615 30.78 133.533 30.4907 132.599 29.912C131.666 29.3147 130.938 28.4653 130.415 27.364C129.893 26.2627 129.631 24.9467 129.631 23.416C129.631 21.8853 129.893 20.5787 130.415 19.496C130.938 18.3947 131.666 17.5547 132.599 16.976C133.533 16.3787 134.615 16.08 135.847 16.08C137.042 16.08 138.087 16.3787 138.983 16.976C139.898 17.5547 140.505 18.3387 140.803 19.328H140.495L140.803 16.36H144.163C144.107 16.9387 144.051 17.5267 143.995 18.124C143.958 18.7213 143.939 19.3093 143.939 19.888V30.5H140.467L140.439 27.588H140.775C140.477 28.5587 139.87 29.3333 138.955 29.912C138.041 30.4907 137.005 30.78 135.847 30.78ZM136.827 28.092C137.929 28.092 138.815 27.7093 139.487 26.944C140.159 26.16 140.495 24.984 140.495 23.416C140.495 21.848 140.159 20.6813 139.487 19.916C138.815 19.1507 137.929 18.768 136.827 18.768C135.726 18.768 134.839 19.1507 134.167 19.916C133.495 20.6813 133.159 21.848 133.159 23.416C133.159 24.984 133.486 26.16 134.139 26.944C134.811 27.7093 135.707 28.092 136.827 28.092ZM147.751 30.5V19.888C147.751 19.3093 147.732 18.7213 147.695 18.124C147.657 17.5267 147.601 16.9387 147.527 16.36H150.915L151.195 19.16H150.859C151.307 18.1707 151.969 17.4147 152.847 16.892C153.724 16.3507 154.741 16.08 155.899 16.08C157.56 16.08 158.811 16.5467 159.651 17.48C160.491 18.4133 160.911 19.8693 160.911 21.848V30.5H157.411V22.016C157.411 20.8773 157.187 20.0653 156.739 19.58C156.309 19.076 155.656 18.824 154.779 18.824C153.696 18.824 152.837 19.16 152.203 19.832C151.568 20.504 151.251 21.4 151.251 22.52V30.5H147.751ZM171.118 30.78C169.662 30.78 168.383 30.4813 167.282 29.884C166.199 29.2867 165.359 28.4373 164.762 27.336C164.164 26.216 163.866 24.8907 163.866 23.36C163.866 21.8293 164.164 20.5227 164.762 19.44C165.378 18.3573 166.227 17.5267 167.31 16.948C168.392 16.3693 169.662 16.08 171.118 16.08C172.051 16.08 172.956 16.2293 173.834 16.528C174.73 16.808 175.458 17.2187 176.018 17.76L174.954 20.196C174.45 19.7293 173.88 19.384 173.246 19.16C172.63 18.9173 172.023 18.796 171.426 18.796C170.175 18.796 169.195 19.188 168.486 19.972C167.795 20.756 167.45 21.8947 167.45 23.388C167.45 24.8813 167.795 26.0293 168.486 26.832C169.195 27.6347 170.175 28.036 171.426 28.036C172.004 28.036 172.602 27.924 173.218 27.7C173.852 27.476 174.431 27.1307 174.954 26.664L176.018 29.072C175.439 29.6133 174.702 30.0333 173.806 30.332C172.928 30.6307 172.032 30.78 171.118 30.78ZM185.29 30.78C182.919 30.78 181.062 30.1267 179.718 28.82C178.374 27.5133 177.702 25.7213 177.702 23.444C177.702 21.9693 177.991 20.6813 178.57 19.58C179.148 18.4787 179.951 17.62 180.978 17.004C182.023 16.388 183.236 16.08 184.618 16.08C185.98 16.08 187.119 16.3693 188.034 16.948C188.948 17.5267 189.639 18.3387 190.106 19.384C190.591 20.4293 190.834 21.652 190.834 23.052V23.976H180.53V22.128H188.342L187.866 22.52C187.866 21.2133 187.586 20.2147 187.026 19.524C186.484 18.8333 185.691 18.488 184.646 18.488C183.488 18.488 182.592 18.8987 181.958 19.72C181.342 20.5413 181.034 21.6893 181.034 23.164V23.528C181.034 25.0587 181.407 26.2067 182.154 26.972C182.919 27.7187 183.992 28.092 185.374 28.092C186.176 28.092 186.923 27.9893 187.614 27.784C188.323 27.56 188.995 27.2053 189.63 26.72L190.666 29.072C189.994 29.6133 189.191 30.0333 188.258 30.332C187.324 30.6307 186.335 30.78 185.29 30.78Z" fill="white"/>
</svg>
